<svg xmlns="http://www.w3.org/2000/svg" xmlns:xlink="http://www.w3.org/1999/xlink" viewBox="0 0 65 63" fill="#fff" fill-rule="evenodd" stroke="#000" stroke-linecap="round" stroke-linejoin="round"><use xlink:href="#E" x=".5" y=".5"/><defs><linearGradient x1="62.1023273%" y1="0%" x2="108.19718%" y2="37.8635764%" id="A"><stop stop-color="#4285eb" offset="0%"/><stop stop-color="#2ec7ff" offset="100%"/></linearGradient><linearGradient x1="69.644116%" y1="0%" x2="54.0428975%" y2="108.456714%" id="B"><stop stop-color="#29cdff" offset="0%"/><stop stop-color="#148eff" offset="37.8600687%"/><stop stop-color="#0a60ff" offset="100%"/></linearGradient><linearGradient x1="69.6908165%" y1="-12.9743587%" x2="16.7228981%" y2="117.391248%" id="C"><stop stop-color="#fa816e" offset="0%"/><stop stop-color="#f74a5c" offset="41.472606%"/><stop stop-color="#f51d2c" offset="100%"/></linearGradient><linearGradient x1="68.1279872%" y1="-35.6905737%" x2="30.4400914%" y2="114.942679%" id="D"><stop stop-color="#fa8e7d" offset="0%"/><stop stop-color="#f74a5c" offset="51.2635191%"/><stop stop-color="#f51d2c" offset="100%"/></linearGradient></defs><symbol id="E" overflow="visible"><g stroke="none" fill-rule="nonzero"><path d="M29.27 1.095L1.134 28.143a3.61 3.61 0 0 0 0 5.257L29.27 60.448c1.513 1.454 3.956 1.454 5.468 0l11.797-11.341c1.355-1.302 1.355-3.414 0-4.716a3.57 3.57 0 0 0-4.906 0l-8.943 8.597c-.376.362-.948.362-1.324 0l-22.468-21.6c-.376-.362-.376-.911 0-1.273l22.468-21.6c.376-.362.948-.362 1.324 0l8.943 8.597a3.57 3.57 0 0 0 4.906 0c1.355-1.302 1.355-3.414 0-4.716L34.739 1.058c-1.519-1.423-3.963-1.411-5.47.037z" fill="url(#A)"/><path d="M29.27 1.095L1.134 28.143a3.61 3.61 0 0 0 0 5.257L29.27 60.448c1.513 1.454 3.956 1.454 5.468 0l11.797-11.341c1.355-1.302 1.355-3.414 0-4.716a3.57 3.57 0 0 0-4.906 0l-8.943 8.597c-.376.362-.948.362-1.324 0l-22.468-21.6c-.376-.362-.376-.911 0-1.273l22.468-21.6c.937-.778 2.467-2.352 4.713-2.721 1.669-.274 3.494.329 5.475 1.808l-6.81-6.545c-1.519-1.423-3.963-1.411-5.47.037z" fill="url(#B)"/><path d="M49.258 41.876a3.57 3.57 0 0 0 4.906 0l8.702-8.365a3.61 3.61 0 0 0 0-5.257l-8.778-8.408c-1.358-1.301-3.555-1.299-4.91.004s-1.355 3.414 0 4.716l5.929 5.699c.376.362.376.911 0 1.273l-5.848 5.622c-1.355 1.302-1.355 3.414 0 4.716z" fill="url(#C)"/><path d="M24.548 30.907c0-4.046 3.388-7.303 7.597-7.303s7.597 3.257 7.597 7.303-3.388 7.303-7.597 7.303-7.597-3.257-7.597-7.303z" fill="url(#D)"/></g></symbol></svg>