<svg xmlns="http://www.w3.org/2000/svg" xmlns:xlink="http://www.w3.org/1999/xlink" viewBox="0 0 58.511 65.511" fill="#fff" fill-rule="evenodd" stroke="#000" stroke-linecap="round" stroke-linejoin="round"><use xlink:href="#A" x=".756" y=".756"/><symbol id="A" overflow="visible"><g stroke="none"><path d="M54.622 49.244L29.887 63.535c-1.062.618-2.373.618-3.435 0L1.717 49.244C.651 48.639 0 47.491 0 46.289V17.711c0-1.236.653-2.336 1.717-2.955L26.438.463c1.062-.618 2.374-.618 3.435 0l24.735 14.291a3.42 3.42 0 0 1 1.718 2.955v28.566a3.59 3.59 0 0 1-1.718 2.955z" fill="#8d6748"/><g fill-rule="nonzero"><path d="M28.136 5.375c.339.006.67.101.961.275l21.368 12.333a1.98 1.98 0 0 1 .961 1.684v24.665a1.98 1.98 0 0 1-.961 1.684L29.097 58.348c-.31.172-.605.275-.961.275-.34-.001-.672-.097-.961-.275L5.807 46.015a1.98 1.98 0 0 1-.961-1.684V19.666a1.98 1.98 0 0 1 .961-1.684L27.175 5.65c.31-.172.653-.275.961-.275m0-1.031a2.95 2.95 0 0 0-1.477.413L5.292 17.089c-.914.519-1.479 1.49-1.477 2.542v24.665c0 1.066.55 2.025 1.477 2.542l21.368 12.333c.446.275.961.413 1.477.413s1.031-.151 1.477-.413L50.98 46.839c.914-.519 1.479-1.491 1.477-2.542V19.63c0-1.065-.55-2.025-1.477-2.542L29.612 4.758c-.446-.275-.961-.413-1.477-.413zm3.038 15.286c0-.172-.151-.343-.343-.343h-6.458c-.172 0-.343.151-.343.343 0 1.168.172 5.187 1.889 7.146.068.068.151.103.242.103h2.872c.092.002.18-.035.242-.103 1.718-1.924 1.889-5.943 1.889-7.146zm-2.542 6.253h-2.025c-.092.002-.18-.035-.242-.103-1.168-1.36-1.306-4.123-1.339-5.084 0-.172.151-.343.343-.343h4.534c.172 0 .343.151.343.343 0 .961-.172 3.676-1.339 5.084-.103.068-.172.103-.275.103zm-.378-7.285s1.236-.721.481-2.025c-.446-.688-.653-1.27-.481-1.511-.446.55-1.203 1.134-.378 2.37.275.31.413.961.378 1.168zm-1.36.103s.825-.481.31-1.36c-.31-.446-.446-.858-.31-.997-.31.378-.79.756-.242 1.614.172.172.242.605.242.756z"/><path d="M29.698 22.689c-.151.928-.413 1.992-.997 2.68-.068.068-.151.103-.206.103h-1.718c-.068 0-.172-.035-.206-.103-.413-.514-.688-1.203-.858-1.924 0 0 1.992.275 3.125-.151.825-.31.858-.605.858-.605zM7.127 28.254h1.27l2.096 3.23 2.096-3.23h1.269v6.871h-1.203v-4.912l-2.163 3.216h-.035l-2.116-3.195v4.912H7.14zm12.952 6.973a3.99 3.99 0 0 1-1.443-.275 3.28 3.28 0 0 1-1.134-.756c-.318-.323-.563-.709-.721-1.133a3.66 3.66 0 0 1-.275-1.36v-.035a3.63 3.63 0 0 1 .275-1.36c.172-.413.413-.791.756-1.134a3.28 3.28 0 0 1 1.133-.756c.446-.206.928-.275 1.443-.275a3.99 3.99 0 0 1 1.443.275 3.28 3.28 0 0 1 1.134.756c.318.323.563.709.721 1.134a3.66 3.66 0 0 1 .275 1.36v.035a3.63 3.63 0 0 1-.275 1.36c-.172.413-.413.79-.756 1.133a3.28 3.28 0 0 1-1.133.756c-.446.206-.928.275-1.443.275zm0-1.099c.343 0 .653-.068.928-.206.267-.132.51-.306.721-.515.206-.206.343-.481.481-.756.108-.298.166-.611.172-.928v-.035c0-.343-.068-.653-.172-.961-.106-.293-.269-.562-.481-.79-.211-.21-.454-.384-.721-.515-.275-.151-.583-.206-.928-.206a2.04 2.04 0 0 0-.928.206 2.75 2.75 0 0 0-.721.515c-.206.206-.343.481-.481.756-.108.298-.166.611-.172.928v.035c0 .343.068.653.172.961a2.33 2.33 0 0 0 .481.791 2.75 2.75 0 0 0 .721.515c.29.136.607.206.928.206zm9.413 1.099c-.472.002-.94-.092-1.375-.275-.414-.172-.79-.446-1.099-.756-.318-.323-.563-.709-.721-1.133-.172-.446-.275-.907-.275-1.36v-.035a3.5 3.5 0 0 1 .275-1.36 3.96 3.96 0 0 1 .721-1.134 3.28 3.28 0 0 1 1.133-.756c.459-.183.949-.277 1.443-.275.31 0 .583.035.858.068l.721.206c.206.103.413.205.583.343l.514.446-.79.907a4.23 4.23 0 0 0-.858-.605 2.27 2.27 0 0 0-1.065-.242c-.31-.005-.617.065-.893.206a2.75 2.75 0 0 0-.721.515c-.205.206-.343.481-.481.756-.108.298-.166.611-.172.928v.035c0 .343.068.653.172.961.106.293.269.562.481.79.206.206.446.413.721.514s.583.206.907.206c.413 0 .791-.068 1.066-.242a6.46 6.46 0 0 0 .893-.653l.79.791c-.172.206-.343.343-.55.514s-.413.275-.605.378a2.63 2.63 0 0 1-.721.242c-.31.068-.605.068-.928.068zm5.222-6.973h1.203v2.852h3.298v-2.852h1.203v6.871h-1.203v-2.872h-3.301v2.872h-1.203zm11.027-.035h1.099l3.023 6.907h-1.27l-.688-1.663h-3.23l-.721 1.663h-1.236zm1.717 4.191l-1.168-2.748-1.168 2.748h2.337zM6.269 37.289h43.799v.378H6.269zm43.799-12.916h-18.62c0 .151-.035.242-.035.378h18.653v-.378zm-43.799 0v.378h17.554c0-.151-.035-.242-.035-.378z"/></g></g></symbol></svg>