<?xml version="1.0" encoding="UTF-8" standalone="no"?>
<!-- Created with Inkscape (http://www.inkscape.org/) -->
<svg
   xmlns:dc="http://purl.org/dc/elements/1.1/"
   xmlns:cc="http://web.resource.org/cc/"
   xmlns:rdf="http://www.w3.org/1999/02/22-rdf-syntax-ns#"
   xmlns:svg="http://www.w3.org/2000/svg"
   xmlns="http://www.w3.org/2000/svg"
   xmlns:sodipodi="http://sodipodi.sourceforge.net/DTD/sodipodi-0.dtd"
   xmlns:inkscape="http://www.inkscape.org/namespaces/inkscape"
   version="1.0"
   width="744.09448"
   height="165.5433"
   id="svg6653"
   sodipodi:version="0.32"
   inkscape:version="0.46dev+devel"
   sodipodi:docname="hollywood.svg"
   inkscape:output_extension="org.inkscape.output.svg.inkscape">
  <metadata
     id="metadata20">
    <rdf:RDF>
      <cc:Work
         rdf:about="">
        <dc:format>image/svg+xml</dc:format>
        <dc:type
           rdf:resource="http://purl.org/dc/dcmitype/StillImage" />
      </cc:Work>
    </rdf:RDF>
  </metadata>
  <sodipodi:namedview
     inkscape:window-height="994"
     inkscape:window-width="1400"
     inkscape:pageshadow="2"
     inkscape:pageopacity="0.0"
     guidetolerance="10.0"
     gridtolerance="10.0"
     objecttolerance="10.0"
     borderopacity="1.0"
     bordercolor="#666666"
     pagecolor="#ffffff"
     id="base"
     width="210mm"
     height="46.72mm"
     units="mm"
     inkscape:zoom="1.1075648"
     inkscape:cx="373.8493"
     inkscape:cy="56.765208"
     inkscape:window-x="-4"
     inkscape:window-y="-4"
     inkscape:current-layer="svg6653" />
  <defs
     id="defs6655" />
  <g
     id="g2218">
    <path
       style="fill:#fff;fill-opacity:1;fill-rule:evenodd;stroke:#fff;stroke-width:0.319612px;stroke-linecap:butt;stroke-linejoin:miter;stroke-opacity:1"
       id="path2236"
       d="M 17.876369,22.180873 L 41.574282,22.970804 L 42.251367,56.486424 L 66.400668,57.389203 L 65.610737,24.212126 L 89.30865,24.550665 L 91.3399,114.60273 L 67.303447,114.60273 L 66.513517,78.265936 L 42.8156,77.137463 L 42.8156,111.10447 L 18.327757,108.73468 L 17.876369,22.180873 z" />
    <path
       id="path2817"
       d="M 131.40625 17.90625 L 111.65625 29.40625 L 112.78125 92.9375 L 134.90625 107.03125 L 162.21875 107.375 L 184 94.28125 L 182.28125 30.65625 L 161.40625 18 L 131.40625 17.90625 z M 142.8125 35.15625 L 151.5 35.15625 L 158.59375 39.09375 L 159.71875 84.59375 L 153.40625 88.53125 L 143.59375 88.4375 L 136.8125 84.59375 L 136.03125 38.65625 L 142.8125 35.15625 z "
       style="fill:#fff;fill-opacity:1;fill-rule:evenodd;stroke:#fff;stroke-width:0.319612px;stroke-linecap:butt;stroke-linejoin:miter;stroke-opacity:1" />
    <path
       sodipodi:nodetypes="ccccccc"
       style="fill:#fff;fill-opacity:1;fill-rule:evenodd;stroke:#fff;stroke-width:0.319612px;stroke-linecap:butt;stroke-linejoin:miter;stroke-opacity:1"
       id="path5490"
       d="M 225.28953,21.278097 L 203.17148,19.246848 L 205.08988,104.67218 L 267.043,107.94475 L 267.043,94.515931 L 227.88502,92.146142 L 225.28953,21.278097 z" />
    <path
       sodipodi:nodetypes="ccccccc"
       style="fill:#fff;fill-opacity:1;fill-rule:evenodd;stroke:#fff;stroke-width:0.319612px;stroke-linecap:butt;stroke-linejoin:miter;stroke-opacity:1"
       id="path5492"
       d="M 291.75654,27.371845 L 270.08987,25.453444 L 272.00828,107.94475 L 333.62285,115.41449 L 333.28431,99.819751 L 294.12633,96.660029 L 291.75654,27.371845 z" />
    <path
       sodipodi:nodetypes="ccccccccccc"
       style="fill:#fff;fill-opacity:1;fill-rule:evenodd;stroke:#fff;stroke-width:0.319612px;stroke-linecap:butt;stroke-linejoin:miter;stroke-opacity:1"
       id="path5494"
       d="M 339.71658,116.63398 L 357.88499,122.50204 L 365.33291,122.50204 L 364.54299,94.515931 L 383.04993,34.932609 L 361.38327,32.90136 L 350.66278,68.448229 L 337.23397,30.87011 L 314.77736,28.951706 L 338.47527,92.146142 L 339.71658,116.63398 z" />
    <path
       style="fill:#fff;fill-opacity:1;fill-rule:evenodd;stroke:#fff;stroke-width:0.319612px;stroke-linecap:butt;stroke-linejoin:miter;stroke-opacity:1"
       id="path5496"
       d="M 424.57769,103.88225 L 424.57769,103.88225 L 436.87803,136.15655 L 449.06553,136.60794 L 461.02733,50.731215 L 443.64888,49.941288 L 439.24782,82.328435 L 427.73741,48.812815 L 416.00132,47.910039 L 413.18014,80.410031 L 406.52214,47.571496 L 385.08116,45.653092 L 402.12112,133.56107 L 415.54993,134.68954 L 424.57769,103.88225 z" />
    <path
       id="path5498"
       d="M 491.9375 55.03125 L 473.3125 66.40625 L 476.59375 127.6875 L 497.46875 140.65625 L 522.40625 141.46875 L 542.15625 129.9375 L 539.34375 68.78125 L 518.8125 55.6875 L 491.9375 55.03125 z M 501.875 71.9375 L 510.90625 71.9375 L 516.875 75.90625 L 519.59375 120.125 L 513.625 123.625 L 504.59375 123.28125 L 497.9375 119 L 495.90625 74.78125 L 501.875 71.9375 z "
       style="fill:#fff;fill-opacity:1;fill-rule:evenodd;stroke:#fff;stroke-width:0.319612px;stroke-linecap:butt;stroke-linejoin:miter;stroke-opacity:1" />
    <path
       id="path5883"
       d="M 573.65625 60.78125 L 556.28125 72.28125 L 559.09375 133.5625 L 579.625 146.875 L 607.15625 147.65625 L 624.53125 136.28125 L 620.71875 75.78125 L 600.5 62.8125 L 573.65625 60.78125 z M 583.59375 78.59375 L 592.28125 78.9375 L 598.9375 82.5625 L 602.09375 127.59375 L 596.5625 130.28125 L 587.53125 129.9375 L 580.75 125.21875 L 577.59375 81.75 L 583.59375 78.59375 z "
       style="fill:#fff;fill-opacity:1;fill-rule:evenodd;stroke:#fff;stroke-width:0.319612px;stroke-linecap:butt;stroke-linejoin:miter;stroke-opacity:1" />
    <path
       id="path6268"
       d="M 654 55.03125 L 658.75 141.8125 L 705.78125 143.03125 L 726.21875 130.28125 L 722.375 67.875 L 700.59375 55.6875 L 654 55.03125 z M 677.6875 72.625 L 692.6875 72.75 L 699.46875 76.6875 L 702.1875 121.59375 L 696.65625 125.21875 L 680.84375 124.75 L 677.6875 72.625 z "
       style="fill:#fff;fill-opacity:1;fill-rule:evenodd;stroke:#fff;stroke-width:0.319612px;stroke-linecap:butt;stroke-linejoin:miter;stroke-opacity:1" />
  </g>
</svg>
