<svg xmlns="http://www.w3.org/2000/svg" xmlns:xlink="http://www.w3.org/1999/xlink" viewBox="0 0 19 23" fill="#fff" fill-rule="evenodd" stroke="#000" stroke-linecap="round" stroke-linejoin="round"><use xlink:href="#A" x=".5" y=".5"/><symbol id="A" overflow="visible"><g stroke="none"><path d="M.682 20.272L.001 2.113c-.022-.6.438-1.108 1.037-1.145L16.483.002c.61-.038 1.135.425 1.174 1.035l.002.069v19.788c0 .611-.495 1.106-1.106 1.106-.016 0-.033 0-.05-.001l-14.764-.663c-.575-.026-1.035-.488-1.056-1.063z" fill="#ff4785"/><path d="M13.039 2.704l.105-2.537L15.266 0l.091 2.617c.003.091-.069.167-.159.171-.039.001-.077-.011-.108-.035l-.818-.644-.969.735c-.072.055-.176.041-.231-.032-.024-.031-.035-.068-.034-.107zm-2.713 5.589c0 .43 2.898.224 3.288-.078 0-2.93-1.572-4.47-4.452-4.47s-4.493 1.564-4.493 3.91c0 4.086 5.514 4.164 5.514 6.392 0 .626-.307.997-.98.997-.878 0-1.225-.448-1.185-1.973 0-.331-3.349-.434-3.451 0-.26 3.695 2.042 4.761 4.676 4.761 2.553 0 4.554-1.361 4.554-3.824 0-4.379-5.595-4.262-5.595-6.431 0-.88.654-.997 1.041-.997.409 0 1.144.072 1.083 1.714z" fill-rule="nonzero"/></g></symbol></svg>