<?xml version="1.0" encoding="utf-8"?>
<!-- Generator: Adobe Illustrator 26.0.3, SVG Export Plug-In . SVG Version: 6.00 Build 0)  -->
<svg version="1.0" id="Layer_1" xmlns="http://www.w3.org/2000/svg" xmlns:xlink="http://www.w3.org/1999/xlink" x="0px" y="0px"
	 viewBox="0 0 250 181" style="enable-background:new 0 0 250 181;" xml:space="preserve">
<style type="text/css">
	.st0{fill:none;}
</style>
<path d="M208.5,60l7,7.5c-45.5,51.4-42.3,49.7-59.4,49.7l34.2-37.9c-10.7,2.1-12.8,2.1-18.6,1l7.4-8.5C192,68.5,200.5,64.9,208.5,60
	z M97.1,63.3c1,0,24.6,3.1,4.8,24.5c-14.4,16.2-38,25.7-63.2,33.2l-4.3-7.5c5.3-1.6,24.6-7.5,35.8-15C66.6,99,36.2,105,36.2,90
	C36.7,75.6,73.1,58.4,97.1,63.3L97.1,63.3z M86.9,71.2c-3.8,0-22.4,0-34.8,11.3c-6.4,6.3,0.5,9.6,7,9.1c18.8-1.2,28.4-7.5,33.1-12.3
	C94.4,77.7,97.1,71.7,86.9,71.2L86.9,71.2z M158.2,60.5l7,7.5c-45.5,51.9-42.3,50.2-59.4,49.7l34.2-38c-10.7,2.6-12.8,2.1-18.7,1
	l7.4-8.6C141.6,69,149.5,65.9,158.2,60.5z"/>
<rect x="28" y="55" class="st0" width="194" height="71"/>
</svg>
