<?xml version="1.0" ?><svg height="60px" version="1.1" viewBox="0 0 60 60" width="60px" xmlns="http://www.w3.org/2000/svg" xmlns:xlink="http://www.w3.org/1999/xlink"><title/><desc/><defs/><g fill="none" fill-rule="evenodd" id="Page-1" stroke="none" stroke-width="1"><g id="Social_icons" transform="translate(-522.000000, -1955.000000)"><g id="Share" transform="translate(522.000000, 1955.000000)"><circle cx="30" cy="30" fill="#228CC4" id="Oval" r="30"/><path d="M20.5798982,26.2771083 L34.0230155,19.9606798 C33.8519771,19.3929978 33.76,18.7906553 33.76,18.1666667 C33.76,14.7609107 36.5000173,12 39.88,12 C43.2599827,12 46,14.7609107 46,18.1666667 C46,21.5724226 43.2599827,24.3333333 39.88,24.3333333 C38.4426477,24.3333333 37.1210275,23.8340468 36.0766409,22.9982065 L22.1654369,29.5345711 C22.2145178,29.8491184 22.24,30.1715607 22.24,30.5 C22.24,30.8284393 22.2145178,31.1508816 22.1654369,31.4654289 L36.0766412,38.0017944 C37.1210275,37.1659532 38.4426477,36.6666667 39.88,36.6666667 C43.2599827,36.6666667 46,39.4275774 46,42.8333333 C46,46.2390893 43.2599827,49 39.88,49 C36.5000173,49 33.76,46.2390893 33.76,42.8333333 C33.76,42.2093447 33.8519771,41.6070022 34.0230155,41.0393202 L20.5798982,34.7228917 C19.4636017,35.9194253 17.8784043,36.6666667 16.12,36.6666667 C12.7400173,36.6666667 10,33.905756 10,30.5 C10,27.094244 12.7400173,24.3333333 16.12,24.3333333 C17.8784043,24.3333333 19.4636017,25.0805747 20.5798982,26.2771083 L20.5798982,26.2771083 Z" fill="#FFFFFF" id="Combined-Shape"/></g></g></g></svg>